<svg xmlns="http://www.w3.org/2000/svg" width="760" height="340" viewBox="0 0 760 340" font-family="system-ui,sans-serif">
<rect width="760" height="340" fill="#FAFAFA" rx="8"/>
<text x="380" y="28" text-anchor="middle" font-size="15" font-weight="600" fill="#2D2D2D">API Cost per Task (USD)</text>
<text x="380" y="44" text-anchor="middle" font-size="11" fill="#777777">Lower is better — total cost including cache operations</text>
<line x1="64" y1="207.5" x2="736" y2="207.5" stroke="#E8E8E8" stroke-width="1"/>
<text x="58" y="211.5" text-anchor="end" font-size="10" fill="#777777">$0.0112</text>
<line x1="64" y1="155.0" x2="736" y2="155.0" stroke="#E8E8E8" stroke-width="1"/>
<text x="58" y="159.0" text-anchor="end" font-size="10" fill="#777777">$0.0225</text>
<line x1="64" y1="102.5" x2="736" y2="102.5" stroke="#E8E8E8" stroke-width="1"/>
<text x="58" y="106.5" text-anchor="end" font-size="10" fill="#777777">$0.0337</text>
<line x1="64" y1="50.0" x2="736" y2="50.0" stroke="#E8E8E8" stroke-width="1"/>
<text x="58" y="54.0" text-anchor="end" font-size="10" fill="#777777">$0.0449</text>
<line x1="64" y1="50" x2="64" y2="260" stroke="#CCC" stroke-width="1.5"/>
<line x1="64" y1="260" x2="736" y2="260" stroke="#CCC" stroke-width="1.5"/>
<rect x="98.5" y="98.1" width="35.8" height="161.9" fill="#E05C5C" rx="3" opacity="0.9"/>
<text x="116.4" y="94.1" text-anchor="middle" font-size="9" fill="#E05C5C" font-weight="600">$0.0346</text>
<rect x="123.6" y="123.7" width="35.8" height="136.3" fill="#4A90D9" rx="3" opacity="0.9"/>
<text x="141.5" y="119.7" text-anchor="middle" font-size="9" fill="#4A90D9" font-weight="600">$0.0292</text>
<text x="120.0" y="274.0" text-anchor="middle" font-size="9" fill="#2ECC71" font-weight="600">-15%</text>
<text x="120.0" y="286.0" text-anchor="middle" font-size="10" fill="#777777">Python sig</text>
<text x="120.0" y="299.0" text-anchor="middle" font-size="10" fill="#777777">extractor</text>
<rect x="210.5" y="85.0" width="35.8" height="175.0" fill="#E05C5C" rx="3" opacity="0.9"/>
<text x="228.4" y="81.0" text-anchor="middle" font-size="9" fill="#E05C5C" font-weight="600">$0.0374</text>
<rect x="235.6" y="111.4" width="35.8" height="148.6" fill="#4A90D9" rx="3" opacity="0.9"/>
<text x="253.5" y="107.4" text-anchor="middle" font-size="9" fill="#4A90D9" font-weight="600">$0.0318</text>
<text x="232.0" y="274.0" text-anchor="middle" font-size="9" fill="#2ECC71" font-weight="600">-15%</text>
<text x="232.0" y="286.0" text-anchor="middle" font-size="10" fill="#777777">Gemini API</text>
<text x="232.0" y="299.0" text-anchor="middle" font-size="10" fill="#777777">init</text>
<rect x="322.5" y="104.8" width="35.8" height="155.2" fill="#E05C5C" rx="3" opacity="0.9"/>
<text x="340.4" y="100.8" text-anchor="middle" font-size="9" fill="#E05C5C" font-weight="600">$0.0332</text>
<rect x="347.6" y="173.2" width="35.8" height="86.8" fill="#4A90D9" rx="3" opacity="0.9"/>
<text x="365.5" y="169.2" text-anchor="middle" font-size="9" fill="#4A90D9" font-weight="600">$0.0186</text>
<text x="344.0" y="274.0" text-anchor="middle" font-size="9" fill="#2ECC71" font-weight="600">-44%</text>
<text x="344.0" y="286.0" text-anchor="middle" font-size="10" fill="#777777">CLI entry</text>
<text x="344.0" y="299.0" text-anchor="middle" font-size="10" fill="#777777">point</text>
<rect x="434.5" y="115.3" width="35.8" height="144.7" fill="#E05C5C" rx="3" opacity="0.9"/>
<text x="452.4" y="111.3" text-anchor="middle" font-size="9" fill="#E05C5C" font-weight="600">$0.0310</text>
<rect x="459.6" y="160.4" width="35.8" height="99.6" fill="#4A90D9" rx="3" opacity="0.9"/>
<text x="477.5" y="156.4" text-anchor="middle" font-size="9" fill="#4A90D9" font-weight="600">$0.0213</text>
<text x="456.0" y="274.0" text-anchor="middle" font-size="9" fill="#2ECC71" font-weight="600">-31%</text>
<text x="456.0" y="286.0" text-anchor="middle" font-size="10" fill="#777777">Test file</text>
<text x="456.0" y="299.0" text-anchor="middle" font-size="10" fill="#777777">save logic</text>
<rect x="546.5" y="92.2" width="35.8" height="167.8" fill="#E05C5C" rx="3" opacity="0.9"/>
<text x="564.4" y="88.2" text-anchor="middle" font-size="9" fill="#E05C5C" font-weight="600">$0.0359</text>
<rect x="571.6" y="135.2" width="35.8" height="124.8" fill="#4A90D9" rx="3" opacity="0.9"/>
<text x="589.5" y="131.2" text-anchor="middle" font-size="9" fill="#4A90D9" font-weight="600">$0.0267</text>
<text x="568.0" y="274.0" text-anchor="middle" font-size="9" fill="#2ECC71" font-weight="600">-25%</text>
<text x="568.0" y="286.0" text-anchor="middle" font-size="10" fill="#777777">Java AST</text>
<text x="568.0" y="299.0" text-anchor="middle" font-size="10" fill="#777777">library</text>
<rect x="658.5" y="100.1" width="35.8" height="159.9" fill="#E05C5C" rx="3" opacity="0.9"/>
<text x="676.4" y="96.1" text-anchor="middle" font-size="9" fill="#E05C5C" font-weight="600">$0.0342</text>
<rect x="683.6" y="170.9" width="35.8" height="89.1" fill="#4A90D9" rx="3" opacity="0.9"/>
<text x="701.5" y="166.9" text-anchor="middle" font-size="9" fill="#4A90D9" font-weight="600">$0.0191</text>
<text x="680.0" y="274.0" text-anchor="middle" font-size="9" fill="#2ECC71" font-weight="600">-44%</text>
<text x="680.0" y="286.0" text-anchor="middle" font-size="10" fill="#777777">CI workflow</text>
<text x="680.0" y="299.0" text-anchor="middle" font-size="10" fill="#777777">trigger</text>
<rect x="536" y="58" width="12" height="12" fill="#E05C5C" rx="2"/>
<text x="552" y="68" font-size="11" fill="#2D2D2D">Naive (Bash only)</text>
<rect x="536" y="76" width="12" height="12" fill="#4A90D9" rx="2"/>
<text x="552" y="86" font-size="11" fill="#2D2D2D">+ SemanticFS MCP</text>
</svg>